<mxfile host="Electron" modified="2024-01-08T16:59:11.367Z" agent="Mozilla/5.0 (Windows NT 10.0; Win64; x64) AppleWebKit/537.36 (KHTML, like Gecko) draw.io/22.1.16 Chrome/120.0.6099.109 Electron/28.1.0 Safari/537.36" etag="LB89amNfEMaZeonlEqdv" version="22.1.16" type="device">
  <diagram name="Page-1" id="TTO7HnB50A5y17X7U3kj">
    <mxGraphModel dx="1927" dy="656" grid="1" gridSize="10" guides="1" tooltips="1" connect="1" arrows="1" fold="1" page="1" pageScale="1" pageWidth="850" pageHeight="1100" math="0" shadow="0">
      <root>
        <mxCell id="0" />
        <mxCell id="1" parent="0" />
        <mxCell id="MICLH53uMrtlu16adH45-2" value="&lt;font style=&quot;font-size: 14px;&quot; face=&quot;LM Sans&quot;&gt;Cargo door&lt;/font&gt;" style="text;html=1;align=center;verticalAlign=middle;resizable=0;points=[];autosize=1;strokeColor=none;fillColor=none;" parent="1" vertex="1">
          <mxGeometry x="75" y="180" width="90" height="30" as="geometry" />
        </mxCell>
        <mxCell id="MICLH53uMrtlu16adH45-4" value="" style="triangle;whiteSpace=wrap;html=1;rotation=0;" parent="1" vertex="1">
          <mxGeometry x="590" y="230" width="20" height="24.15" as="geometry" />
        </mxCell>
        <mxCell id="MICLH53uMrtlu16adH45-5" value="" style="endArrow=none;html=1;rounded=0;entryX=0;entryY=0.5;entryDx=0;entryDy=0;exitX=1;exitY=0.5;exitDx=0;exitDy=0;" parent="1" source="MICLH53uMrtlu16adH45-4" target="MICLH53uMrtlu16adH45-4" edge="1">
          <mxGeometry width="50" height="50" relative="1" as="geometry">
            <mxPoint x="410" y="330" as="sourcePoint" />
            <mxPoint x="580" y="250" as="targetPoint" />
          </mxGeometry>
        </mxCell>
        <mxCell id="MICLH53uMrtlu16adH45-6" value="&lt;font style=&quot;font-size: 14px;&quot; face=&quot;LM Sans&quot;&gt;gNB&lt;/font&gt;" style="text;html=1;align=center;verticalAlign=middle;resizable=0;points=[];autosize=1;strokeColor=none;fillColor=none;" parent="1" vertex="1">
          <mxGeometry x="575" y="200" width="50" height="30" as="geometry" />
        </mxCell>
        <mxCell id="MICLH53uMrtlu16adH45-10" value="&lt;font style=&quot;font-size: 14px;&quot; face=&quot;LM Sans&quot;&gt;Wall&lt;/font&gt;" style="text;html=1;align=center;verticalAlign=middle;resizable=0;points=[];autosize=1;strokeColor=none;fillColor=none;" parent="1" vertex="1">
          <mxGeometry x="113.05" y="235" width="50" height="30" as="geometry" />
        </mxCell>
        <mxCell id="MICLH53uMrtlu16adH45-11" value="" style="endArrow=classic;html=1;rounded=0;startArrow=oval;startFill=1;endSize=6;startSize=3;" parent="1" edge="1">
          <mxGeometry width="50" height="50" relative="1" as="geometry">
            <mxPoint x="-40" y="280" as="sourcePoint" />
            <mxPoint x="80" y="280" as="targetPoint" />
          </mxGeometry>
        </mxCell>
        <mxCell id="MICLH53uMrtlu16adH45-12" value="" style="endArrow=classic;html=1;rounded=0;" parent="1" edge="1">
          <mxGeometry width="50" height="50" relative="1" as="geometry">
            <mxPoint x="-40" y="280" as="sourcePoint" />
            <mxPoint x="-40" y="160" as="targetPoint" />
          </mxGeometry>
        </mxCell>
        <mxCell id="MICLH53uMrtlu16adH45-13" value="" style="ellipse;whiteSpace=wrap;html=1;aspect=fixed;fillColor=none;connectable=1;allowArrows=0;" parent="1" vertex="1">
          <mxGeometry x="-50" y="270" width="20" height="20" as="geometry" />
        </mxCell>
        <mxCell id="MICLH53uMrtlu16adH45-14" value="x" style="text;strokeColor=none;align=center;fillColor=none;html=1;verticalAlign=middle;whiteSpace=wrap;rounded=0;" parent="1" vertex="1">
          <mxGeometry x="36.95" y="290" width="60" height="20" as="geometry" />
        </mxCell>
        <mxCell id="MICLH53uMrtlu16adH45-15" value="y" style="text;strokeColor=none;align=center;fillColor=none;html=1;verticalAlign=middle;whiteSpace=wrap;rounded=0;" parent="1" vertex="1">
          <mxGeometry x="-80" y="150" width="60" height="30" as="geometry" />
        </mxCell>
        <mxCell id="MICLH53uMrtlu16adH45-16" value="z" style="text;strokeColor=none;align=center;fillColor=none;html=1;verticalAlign=middle;whiteSpace=wrap;rounded=0;" parent="1" vertex="1">
          <mxGeometry x="-80" y="280" width="50" height="20" as="geometry" />
        </mxCell>
        <mxCell id="MICLH53uMrtlu16adH45-23" value="&lt;font face=&quot;LM Sans&quot;&gt;θ = 0°&lt;/font&gt;" style="text;html=1;align=center;verticalAlign=middle;resizable=0;points=[];autosize=1;strokeColor=none;fillColor=none;" parent="1" vertex="1">
          <mxGeometry x="540" y="240" width="50" height="30" as="geometry" />
        </mxCell>
        <mxCell id="xXzQQWgSoLmtWymLV_Nt-1" value="" style="shape=mxgraph.signs.people.walking;html=1;pointerEvents=1;fillColor=#dae8fc;strokeColor=#6c8ebf;verticalLabelPosition=bottom;verticalAlign=top;align=center;sketch=0;" vertex="1" parent="1">
          <mxGeometry x="380" y="210" width="20" height="40" as="geometry" />
        </mxCell>
        <mxCell id="xXzQQWgSoLmtWymLV_Nt-2" value="" style="endArrow=none;dashed=1;html=1;rounded=0;entryX=0;entryY=0.5;entryDx=0;entryDy=0;" edge="1" parent="1" target="MICLH53uMrtlu16adH45-4">
          <mxGeometry width="50" height="50" relative="1" as="geometry">
            <mxPoint x="180" y="242" as="sourcePoint" />
            <mxPoint x="590" y="240" as="targetPoint" />
          </mxGeometry>
        </mxCell>
        <mxCell id="xXzQQWgSoLmtWymLV_Nt-3" value="" style="endArrow=classic;html=1;rounded=0;exitX=1;exitY=0.445;exitDx=0;exitDy=0;exitPerimeter=0;fillColor=#dae8fc;strokeColor=#6c8ebf;" edge="1" parent="1" source="xXzQQWgSoLmtWymLV_Nt-1">
          <mxGeometry width="50" height="50" relative="1" as="geometry">
            <mxPoint x="300" y="270" as="sourcePoint" />
            <mxPoint x="430" y="228" as="targetPoint" />
          </mxGeometry>
        </mxCell>
        <mxCell id="xXzQQWgSoLmtWymLV_Nt-4" value="" style="endArrow=classic;html=1;rounded=0;exitX=-0.085;exitY=0.64;exitDx=0;exitDy=0;exitPerimeter=0;" edge="1" parent="1" source="MICLH53uMrtlu16adH45-4">
          <mxGeometry width="50" height="50" relative="1" as="geometry">
            <mxPoint x="580" y="250" as="sourcePoint" />
            <mxPoint x="180" y="245" as="targetPoint" />
          </mxGeometry>
        </mxCell>
        <mxCell id="xXzQQWgSoLmtWymLV_Nt-5" value="" style="endArrow=classic;html=1;rounded=0;" edge="1" parent="1">
          <mxGeometry width="50" height="50" relative="1" as="geometry">
            <mxPoint x="180" y="240" as="sourcePoint" />
            <mxPoint x="370" y="240" as="targetPoint" />
          </mxGeometry>
        </mxCell>
        <mxCell id="xXzQQWgSoLmtWymLV_Nt-17" value="" style="verticalLabelPosition=bottom;verticalAlign=top;html=1;shape=mxgraph.basic.diag_stripe;dx=10;rotation=0;fillColor=#7EA6E0;strokeColor=#7EA6E0;" vertex="1" parent="1">
          <mxGeometry x="153.05" y="200" width="20" height="100" as="geometry" />
        </mxCell>
        <mxCell id="xXzQQWgSoLmtWymLV_Nt-18" value="" style="verticalLabelPosition=bottom;html=1;verticalAlign=top;align=center;shape=mxgraph.floorplan.wall;fillColor=#7EA6E0;direction=south;strokeColor=#7EA6E0;" vertex="1" parent="1">
          <mxGeometry x="163.05" y="150" width="10" height="100" as="geometry" />
        </mxCell>
      </root>
    </mxGraphModel>
  </diagram>
</mxfile>
